<svg xmlns="http://www.w3.org/2000/svg" version="1.1">
<g transform="translate(0.000000,591.000000) scale(0.100000,-0.100000)" fill="#1e1e1e" stroke="none">
<path d="M984 5863 c70 -97 112 -224 143 -429 15 -97 17 -289 20 -1761 l4 -1653 99 0 100 0 0 1543 c0 933 -4 1594 -10 1673 -12 158 -37 262 -89 369 -61 127 -136 208 -265 285 l-38 23 36 -50z"/>
<path d="M1115 5878 c164 -131 256 -283 306 -503 l23 -100 3 -1627 4 -1628 94 0 95 0 0 1618 c-1 1317 -3 1631 -14 1692 -50 274 -208 455 -485 556 l-66 24 40 -32z"/>
<path  d="M1317 5867 c208 -110 326 -253 395 -477 l23 -75 3 -1647 2 -1648 100 0 100 0 0 1609 c0 1744 2 1676 -54 1826 -62 163 -173 282 -343 368 -57 29 -193 71 -263 81 -44 6 -44 5 37 -37z"/>
<path fill="#00693c" d="M52 3578 l3 -1433 23 -79 c76 -271 252 -444 522 -515 146 -38 153 -36 65 15 -170 97 -261 190 -331 339 -84 180 -78 49 -81 1668 l-3 1437 -100 0 -101 0 3 -1432z"/>
<path fill="#00693c" d="M350 3622 c0 -909 4 -1417 11 -1472 12 -101 54 -228 100 -307 73 -124 220 -238 384 -298 l70 -26 -35 27 c-61 47 -164 160 -199 218 -61 102 -100 219 -121 361 -6 44 -10 594 -10 1478 l0 1407 -100 0 -100 0 0 -1388z"/>
<path fill="#00693c" d="M650 3607 c0 -906 4 -1433 10 -1487 35 -282 148 -465 368 -594 8 -5 -3 14 -22 42 -74 103 -115 233 -141 452 -13 106 -15 346 -15 1558 l0 1432 -100 0 -100 0 0 -1403z"/>
<path fill="#a71930" d="M2237 3518 c-3 -1478 -3 -1494 -25 -1604 -27 -139 -69 -258 -121 -334 l-39 -60 40 23 c68 37 186 155 228 226 21 36 50 101 65 143 55 168 55 152 55 1686 l0 1412 -100 0 -99 0 -4 -1492z"/>
<path fill="#a71930" d="M2537 3563 c-3 -1354 -4 -1453 -21 -1523 -50 -211 -144 -362 -301 -488 l-40 -32 65 24 c255 93 402 249 472 501 l23 80 3 1443 3 1442 -101 0 -100 0 -3 -1447z"/>
<path fill="#a71930" d="M2838 3573 l-3 -1438 -23 -80 c-63 -228 -190 -384 -403 -498 -83 -44 -75 -45 56 -12 292 74 468 241 547 521 l23 79 3 1433 3 1432 -100 0 -100 0 -3 -1437z"/>
<path d="M1480 925 c-307 -69 -464 -387 -331 -670 101 -216 388 -308 704 -224 l38 10 -3 225 -3 226 -33 29 c-32 28 -35 29 -142 29 l-111 0 23 -31 c21 -29 23 -42 26 -199 l3 -169 -25 -7 c-58 -14 -155 23 -199 75 -48 58 -70 135 -71 251 -1 96 1 110 27 162 31 64 71 102 136 131 60 26 195 21 260 -11 25 -12 46 -22 48 -22 2 0 3 40 3 88 l0 89 -37 12 c-60 20 -238 23 -313 6z"/>
<path d="M244 889 c14 -17 26 -39 26 -49 0 -10 -61 -197 -135 -416 -74 -219 -135 -400 -135 -401 0 -2 38 -3 85 -3 l84 0 34 108 35 107 150 3 150 3 37 -111 37 -110 128 0 129 0 -29 83 c-97 284 -244 690 -265 732 -37 77 -58 85 -220 85 l-137 0 26 -31z m201 -369 c24 -71 41 -131 37 -134 -8 -9 -192 -7 -192 1 0 4 21 71 47 150 34 103 50 138 56 127 5 -9 28 -74 52 -144z"/>
<path d="M2263 883 c22 -37 22 -45 25 -450 l3 -413 120 0 119 0 0 190 0 190 135 0 135 0 0 -190 0 -190 120 0 120 0 0 450 0 450 -120 0 -120 0 0 -185 0 -185 -134 0 -134 0 -4 148 c-3 158 -9 176 -59 206 -20 12 -53 16 -128 16 l-100 0 22 -37z"/>
</g>
</svg>